<svg xmlns="http://www.w3.org/2000/svg" viewBox="0 0 1606.72 1606.72"><defs><style>.cls-1{isolation:isolate;}.cls-2{fill:#27a84a;}.cls-3{fill:#fff;}.cls-4{opacity:0.2;mix-blend-mode:multiply;}</style></defs><title>Asset 1</title><g class="cls-1"><g id="Layer_2" data-name="Layer 2"><g id="Layer_1-2" data-name="Layer 1"><circle class="cls-2" cx="803.36" cy="803.36" r="803.36"/><path class="cls-3" d="M1029.43,875.75v6.75l60.58,2.29c8.65.33,15.86.83,23.52,5.05a87,87,0,0,1,14.42,9.88c11.76,10,20.2,23.51,21.66,39.07a58.65,58.65,0,0,1,.13,8.89s0,81.18-43.07,113.31c0,0-59.46,67.67-178.4,18.46,0,0-109.37-28.71-141.49-169.52,0,0-36.92-143.17,50.58-229.49,0,0,94.33-104.39,218.05-21.87,15.51,11,29.74,24.29,42.71,38.12a253.63,253.63,0,0,1,27.62,34.71,180.54,180.54,0,0,1,11.48,20.16c1.65,3.4,3.18,6.86,4.56,10.38.55,1.39,1,4.52,2,5.56,1.86,1.91,5.12.16,6.21-1.45.7-1,.9-2.94,1.26-4.11l4.54-14.88,10.4-34.09,2-6.43s-64.25-89.17-179.77-89.85c0,0-114.63-12.66-192.07,82.12l.68-317H874.5s79.29-1.39,145.36,71.76v-85H507.92v85s54.88-70.85,165.16-71.76h59.7V526.42c0,61.17.29,122.35-1.54,183.49-1.78,59.69-7.73,119.78-.46,179.32a261.39,261.39,0,0,0,66,144.08A306.66,306.66,0,0,0,839,1071.7s84.76,66.53,203.24,34.63a237.33,237.33,0,0,0,108.45-63.94,204.51,204.51,0,0,0,36.79-52.09c10.94-22.62,11.73-47.07,14.49-71.57.46-4.09,1-8.18,1.62-12.24.92-5.76,1.81-12.33,4.56-17.56.29-.54,7.94-8.92,7.94-6.43v-6.75Z"/><path class="cls-3" d="M251.44,964.58c10,0,19.88,0,29.75,0a51,51,0,0,1,6.88.37c13.62,1.89,21.23,12.88,19.89,25.51-.9,8.4-5.32,14.19-13.27,17.64l18.4,34.49c-.74.05-1.25.11-1.75.12-4.12,0-8.24-.06-12.36,0a2.5,2.5,0,0,1-2.65-1.57c-5.05-9.76-10.21-19.47-15.26-29.24a2.5,2.5,0,0,0-2.62-1.61c-4.35.09-8.69,0-13.18,0v32.23H251.44Zm13.88,37.07c6.56,0,12.91.26,19.23-.1,4.08-.23,7.06-2.69,8.47-6.67a20.45,20.45,0,0,0,.35-12.31c-1.57-6-5.23-9.05-11.33-9.36-4.17-.21-8.35-.08-12.52-.1h-4.2Z"/><path class="cls-3" d="M176.09,1007.21v27h2.24c12.06,0,24.11,0,36.17,0,1.66,0,2.24.42,2.13,2.12-.15,2.09,0,4.2,0,6.36H162.15v-78h54v8.42H176.07v25.67H210.5v8.48Z"/><path class="cls-3" d="M630.56,1007.33H596.18v26.86h40.39v8.44h-54.3V964.69h54.11c0,2.53.06,5-.07,7.46,0,.35-1,.91-1.51.91-4.61.08-9.21.05-13.82.05H596.19v25.55h34.37Z"/><path class="cls-3" d="M127,978.93l-5.4,4c-.56-.67-1.11-1.29-1.61-1.94-5.55-7.18-13.09-9.36-21.75-8.59a23.13,23.13,0,0,0-5.8,1.32c-7.79,2.85-7.23,13.19-2.38,16.89,3.42,2.61,7.48,3.56,11.54,4.52,6.29,1.5,12.54,3.13,18.24,6.35,8,4.49,11.39,11.39,10.69,20.39-.63,8.21-4.64,14.26-12,18-7.12,3.62-14.76,4.41-22.6,3.77-6.53-.53-12.58-2.36-17.69-6.67a24.77,24.77,0,0,1-7.39-10.8,1.84,1.84,0,0,1,.39-1.63c1.37-1.18,2.86-2.2,4.44-3.38l2.32,3.51C82.57,1031.38,89,1034.92,97,1035a43.57,43.57,0,0,0,11.26-1.37c5.33-1.38,8.07-5.29,8.38-10.78.29-5-1.81-8.92-6.33-11.1a86.87,86.87,0,0,0-10.31-3.87c-4.64-1.55-9.41-2.71-14-4.47-6.3-2.45-11.28-6.53-12.83-13.49C70.75,979,74.63,967.18,90,964.28c7.79-1.48,15.55-1.19,23,1.8C119.25,968.56,123.73,973,127,978.93Z"/><path class="cls-3" d="M718.17,978.92l-5.39,4c-.57-.69-1.12-1.31-1.62-2-5.56-7.16-13.1-9.34-21.75-8.56a22.69,22.69,0,0,0-5.8,1.31c-7.78,2.86-7.22,13.19-2.38,16.89,3.42,2.61,7.48,3.56,11.53,4.52,6.3,1.49,12.54,3.13,18.24,6.34,8,4.49,11.39,11.37,10.71,20.37-.62,8.21-4.62,14.27-11.94,18-7.1,3.63-14.74,4.43-22.59,3.8-6.52-.52-12.58-2.35-17.69-6.64a24.94,24.94,0,0,1-7.42-10.78,1.76,1.76,0,0,1,.18-1.53c1.47-1.24,3-2.35,4.56-3.48,1.48,2,2.75,4,4.24,5.83,5.77,7,13.56,8.67,22.08,7.87a28.64,28.64,0,0,0,8-2c4.44-1.79,6.39-5.54,6.62-10.18a10.91,10.91,0,0,0-5.14-10.35c-3.92-2.55-8.4-3.6-12.79-4.93-4.21-1.27-8.48-2.43-12.57-4-6.85-2.67-11.9-7.2-13.26-14.82-2.21-12.42,4.71-22.21,17.18-24.36,7.82-1.35,15.56-1.16,23,1.84C710.42,968.57,714.89,973,718.17,978.92Z"/><path class="cls-3" d="M547.52,1023.38l5.72,3.34a25,25,0,0,1-7.55,9.26c-8.25,6.4-17.74,8.51-28,7.63a36.54,36.54,0,0,1-23.9-11.24,39.76,39.76,0,0,1-11-23.16c-1.31-10.08.35-19.54,6.07-28.06,6.69-9.95,16.12-15.65,28-17.26,10.24-1.4,19.58.91,27.72,7.46a28.5,28.5,0,0,1,7.4,9.1l-5.55,3.28c-2.27-2.15-4.34-4.28-6.59-6.2-10.82-9.19-34.81-7.61-41.27,12.8-3.16,10-2.81,20,1.7,29.52,5.41,11.47,17.16,17.16,29.63,14.72,6.65-1.3,11.9-4.83,16.36-9.74C546.65,1024.39,547,1023.93,547.52,1023.38Z"/><path class="cls-3" d="M408.28,964.58c-2.4,6.55-4.71,12.82-7,19.1q-10.56,28.73-21.06,57.46a2,2,0,0,1-2.3,1.62c-3.76-.09-7.52-.06-11.27,0a1.61,1.61,0,0,1-1.85-1.23q-13.82-37.93-27.72-75.84a8,8,0,0,1-.22-1H351.7L375.37,1031c.37-.89.62-1.4.81-1.93q11.11-31.31,22.2-62.62a2.29,2.29,0,0,1,2.69-1.87C403.36,964.68,405.67,964.58,408.28,964.58Z"/><path class="cls-3" d="M446,1042.67h-13.7v-78H446Z"/><path class="cls-3" d="M751.62,881.23l-2.19,1.2C712,814.14,605,738.45,603.89,737.69c-34.09-24.12-83.92-72.75-86.38-75.15C416.88,597.2,389.36,535,389.09,534.35l2.3-1C391.65,534,419,595.6,519,660.51l.2.16c.51.5,51.53,50.49,86.16,75C606.41,736.4,713.91,812.44,751.62,881.23Z"/><path class="cls-3" d="M646.47,770.59c-35.83-22.79-130-32.29-131-32.38-54-5.09-90,14.26-90.35,14.45l-1.2-2.18c.37-.2,36.95-19.92,91.79-14.75,3.89.38,95.73,9.65,132.07,32.75Z"/><path class="cls-3" d="M592.13,728.91c-7.8-7.78-10.1-34-10.19-35.08l2.49-.21c0,.26,2.29,26.39,9.46,33.52Z"/><path class="cls-3" d="M641,763l-2.18,1.23C632.5,753,628.38,727.11,628.2,726l2.47-.39C630.71,725.89,634.89,752.16,641,763Z"/><path class="cls-3" d="M682.38,799l-2.4.68c-3.35-11.78-5.67-40.12-5.76-41.32l2.48-.2C676.73,758.42,679.1,787.43,682.38,799Z"/><path class="cls-3" d="M690.82,810.05c-14.57-4.79-52.5,6.67-52.88,6.78l-.73-2.38c1.59-.49,39.07-11.81,54.38-6.78Z"/><path class="cls-3" d="M660.38,782.34c-12.72-8.13-40.25-1.88-40.53-1.82l-.56-2.43c1.17-.27,28.84-6.54,42.44,2.15Z"/><path class="cls-3" d="M385.36,500.14S352.3,529.35,414.3,571C414.3,571,409.31,523.84,385.36,500.14Z"/><path class="cls-3" d="M437.11,595.71s-25-37.56-5.63-67.12C431.48,528.59,469.52,554.87,437.11,595.71Z"/><path class="cls-3" d="M482.34,557s-27.41,27.43-2.15,76.92C480.19,634,516.43,599.76,482.34,557Z"/><path class="cls-3" d="M527.8,669.74s-30.56-53.07,14.17-97C542,572.75,589.36,629.48,527.8,669.74Z"/><path class="cls-3" d="M598.52,616.53s-58,40.73-12.56,95.75C586,712.28,613.45,665,598.52,616.53Z"/><path class="cls-3" d="M630.21,644.49s-56.55,54.28,5.6,108.6C635.81,753.09,677,694.64,630.21,644.49Z"/><path class="cls-3" d="M678.81,788.32S632.5,737.15,693,688.8C693,688.8,731,731.68,678.81,788.32Z"/><path class="cls-3" d="M422.77,581.18s-42.28-26.78-72.19-5.12C350.58,576.06,392.15,611.08,422.77,581.18Z"/><path class="cls-3" d="M473.6,629.56s-62.84-35.32-101.67-6.15C371.93,623.41,413.24,677.22,473.6,629.56Z"/><path class="cls-3" d="M518.29,661.56s-51.12-36.65-92.67,18.86C425.62,680.42,483.66,702.85,518.29,661.56Z"/><path class="cls-3" d="M671.15,808.25s-76.44-30.59-108.23,38.47C562.92,846.72,604.22,875.59,671.15,808.25Z"/><path class="cls-3" d="M647.42,777.36s-42.78-34.13-72.89,13.87C574.53,791.23,614.38,817.4,647.42,777.36Z"/><path class="cls-3" d="M584.86,748.22s-10.4,46.26-57.23,65C527.63,813.22,514.07,751.57,584.86,748.22Z"/><path class="cls-3" d="M515.62,737s-72.83,10.65-64,67C451.64,804,509.2,794.21,515.62,737Z"/><path class="cls-3" d="M435.09,701.86s15.7,37.06,61.87,35.72C497,737.58,480.52,702.06,435.09,701.86Z"/><path class="cls-3" d="M382.75,726.74s30.18,36.8,74.42,13C457.17,739.76,420.54,702.84,382.75,726.74Z"/><path class="cls-3" d="M457.17,739.76s-36.59-15.27-78.91,26.8C378.26,766.56,415.71,794.56,457.17,739.76Z"/><path class="cls-3" d="M549.44,721.19s11.07,20.25,35.42,27C584.86,748.22,581.69,720,549.44,721.19Z"/><path class="cls-3" d="M559.94,701.64s-49.33-28.72-81.25.53C478.69,702.17,524,728,559.94,701.64Z"/><g class="cls-4"><path class="cls-3" d="M385.36,500.14S376.52,522,414.3,571C414.3,571,409.31,523.84,385.36,500.14Z"/></g><g class="cls-4"><path class="cls-3" d="M431.48,528.59s10.47,48.47,5.63,67.12C469.52,554.87,431.48,528.59,431.48,528.59Z"/></g><g class="cls-4"><path class="cls-3" d="M422.77,581.18c-30.21,4.86-72.19-5.12-72.19-5.12S392.15,611.08,422.77,581.18Z"/></g><g class="cls-4"><path class="cls-3" d="M482.34,557c8.33,22.1-2.15,76.92-2.15,76.92S516.43,599.76,482.34,557Z"/></g><g class="cls-4"><path class="cls-3" d="M473.6,629.56c-48.28,3.83-101.67-6.15-101.67-6.15S413.24,677.22,473.6,629.56Z"/></g><g class="cls-4"><path class="cls-3" d="M518.29,661.56c-35.55-3.17-92.67,18.86-92.67,18.86S483.66,702.85,518.29,661.56Z"/></g><g class="cls-4"><path class="cls-3" d="M542,572.75s3.09,63.47-14.17,97C589.36,629.48,542,572.75,542,572.75Z"/></g><g class="cls-4"><path class="cls-3" d="M559.94,701.64c-34.67-5.09-81.25.53-81.25.53S524,728,559.94,701.64Z"/></g><g class="cls-4"><path class="cls-3" d="M598.52,616.53S573.86,660.59,586,712.28C586,712.28,613.45,665,598.52,616.53Z"/></g><g class="cls-4"><path class="cls-3" d="M630.21,644.49s-22.6,60.91,5.6,108.6C635.81,753.09,677,694.64,630.21,644.49Z"/></g><g class="cls-4"><path class="cls-3" d="M693,688.8s-27.66,46.47-14.14,99.52C731,731.68,693,688.8,693,688.8Z"/></g><g class="cls-4"><path class="cls-3" d="M647.42,777.36c-37.27-5.53-72.89,13.87-72.89,13.87S614.38,817.4,647.42,777.36Z"/></g><g class="cls-4"><path class="cls-3" d="M671.15,808.25c-58.24-2.25-108.23,38.47-108.23,38.47S604.22,875.59,671.15,808.25Z"/></g><g class="cls-4"><path class="cls-3" d="M584.86,748.22c-44.58,22.4-57.23,65-57.23,65C574.46,794.48,584.86,748.22,584.86,748.22Z"/></g><g class="cls-4"><path class="cls-3" d="M549.44,721.19s19.14,7.41,35.42,27C584.86,748.22,581.69,720,549.44,721.19Z"/></g><g class="cls-4"><path class="cls-3" d="M515.62,737s-54.24,26.75-64,67C451.64,804,509.2,794.21,515.62,737Z"/></g><g class="cls-4"><path class="cls-3" d="M435.09,701.86s40.75,18.33,61.87,35.72C497,737.58,480.52,702.06,435.09,701.86Z"/></g><g class="cls-4"><path class="cls-3" d="M457.17,739.76c-38.56,11-78.91,26.8-78.91,26.8S415.71,794.56,457.17,739.76Z"/></g><g class="cls-4"><path class="cls-3" d="M382.75,726.74a406.09,406.09,0,0,1,74.42,13S420.54,702.84,382.75,726.74Z"/></g><path class="cls-3" d="M1180.12,965.63l-1.71-1.81c56.7-53.38,103.09-176,103.55-177.22,14.79-39.06,49.36-99.51,51.06-102.48,38-113.82,91.3-156.08,91.84-156.5l1.53,2c-.53.41-53.32,42.31-91,155.42l-.11.23c-.35.62-35.93,62.56-50.94,102.23C1283.84,788.71,1237.24,911.86,1180.12,965.63Z"/><path class="cls-3" d="M1260.81,836.07c13.06-40.4-1.39-134-1.54-134.9-8.64-53.57-36.4-83.52-36.68-83.82l1.82-1.71c.28.3,28.55,30.76,37.32,85.13.61,3.87,14.7,95.1,1.45,136.07Z"/><path class="cls-3" d="M1287.51,773c5.57-9.51,30.35-18.3,31.4-18.67l.82,2.35c-.24.09-25,8.85-30.07,17.58Z"/><path class="cls-3" d="M1266.75,828.92l-1.74-1.81c9.33-9,33.35-19.47,34.37-19.91l1,2.29C1300.12,809.59,1275.74,820.24,1266.75,828.92Z"/><path class="cls-3" d="M1242.35,878l-1.26-2.15c10.56-6.2,37.41-15.56,38.55-15.95l.82,2.35C1280.18,862.31,1252.7,871.88,1242.35,878Z"/><path class="cls-3" d="M1233.75,888.91c1-15.31-19.64-49.14-19.84-49.48l2.13-1.3c.86,1.41,21.23,34.84,20.21,50.93Z"/><path class="cls-3" d="M1252.93,852.49c4.68-14.35-8.29-39.44-8.42-39.69l2.21-1.15c.56,1.06,13.58,26.27,8.58,41.62Z"/><path class="cls-3" d="M1457,515.42s-36.58-24.66-61.36,45.81C1395.68,561.23,1440.11,544.55,1457,515.42Z"/><path class="cls-3" d="M1377.52,589.51s30.07-33.65,63.56-22.31C1441.08,567.2,1425.19,610.63,1377.52,589.51Z"/><path class="cls-3" d="M1426.31,623.58s-33.44-19.64-75,17.23C1351.31,640.81,1393.51,667.3,1426.31,623.58Z"/><path class="cls-3" d="M1328.63,695.88s43.7-42.9,97.44-10.64C1426.07,685.24,1383.07,745.36,1328.63,695.88Z"/><path class="cls-3" d="M1397.9,751s-54-45.92-95.84,11.88C1302.06,762.86,1354.69,777.6,1397.9,751Z"/><path class="cls-3" d="M1378.79,788.67s-66.74-41.1-103.72,32.69C1275.07,821.36,1342,846.57,1378.79,788.67Z"/><path class="cls-3" d="M1251.77,871.83s37.91-57.68,99.88-11.3C1351.65,860.53,1319.7,908.11,1251.77,871.83Z"/><path class="cls-3" d="M1388,572s15.31-47.65-13.17-71.16C1374.81,500.82,1351.35,549.85,1388,572Z"/><path class="cls-3" d="M1353.92,633.33s18.41-69.7-19.58-100C1334.34,533.37,1292.63,586.88,1353.92,633.33Z"/><path class="cls-3" d="M1334.17,684.63s22.64-58.69-41.53-85C1292.64,599.66,1285.51,661.47,1334.17,684.63Z"/><path class="cls-3" d="M1230.56,869.42s10.42-81.67-64.42-95.1C1166.14,774.32,1148.56,821.54,1230.56,869.42Z"/><path class="cls-3" d="M1254.5,838.69s22.29-50-31.74-67.07C1222.76,771.62,1207.44,816.77,1254.5,838.69Z"/><path class="cls-3" d="M1267,770.82s-47.38,1.55-77.29-39.08C1189.7,731.74,1246,703.14,1267,770.82Z"/><path class="cls-3" d="M1260.5,701s-28.6-67.83-80.93-45.11C1179.57,655.87,1203.48,709.13,1260.5,701Z"/><path class="cls-3" d="M1274.26,614.21s-31.92,24.5-19,68.86C1255.23,683.07,1285.48,658.23,1274.26,614.21Z"/><path class="cls-3" d="M1237,569.8s-28,38.45,6.08,75.3C1243.12,645.1,1269.66,600.37,1237,569.8Z"/><path class="cls-3" d="M1243.12,645.1s5.59-39.26-45.76-69.65C1197.36,575.45,1179.66,618.73,1243.12,645.1Z"/><path class="cls-3" d="M1284.27,729.74s-16.83,15.81-17.28,41.08C1267,770.82,1293.51,760.67,1284.27,729.74Z"/><path class="cls-3" d="M1305.82,735s15.42-55-20.91-78.51C1284.91,656.49,1271.34,706.84,1305.82,735Z"/><g class="cls-4"><path class="cls-3" d="M1457,515.42s-23.38-3.07-61.36,45.81C1395.68,561.23,1440.11,544.55,1457,515.42Z"/></g><g class="cls-4"><path class="cls-3" d="M1441.08,567.2s-44.29,22.31-63.56,22.31C1425.19,610.63,1441.08,567.2,1441.08,567.2Z"/></g><g class="cls-4"><path class="cls-3" d="M1388,572c-12.29-28-13.17-71.16-13.17-71.16S1351.35,549.85,1388,572Z"/></g><g class="cls-4"><path class="cls-3" d="M1426.31,623.58c-19.31,13.62-75,17.23-75,17.23S1393.51,667.3,1426.31,623.58Z"/></g><g class="cls-4"><path class="cls-3" d="M1353.92,633.33c-15.83-45.77-19.58-100-19.58-100S1292.63,586.88,1353.92,633.33Z"/></g><g class="cls-4"><path class="cls-3" d="M1334.17,684.63c-5.86-35.22-41.53-85-41.53-85S1285.51,661.47,1334.17,684.63Z"/></g><g class="cls-4"><path class="cls-3" d="M1426.07,685.24s-60.66,18.93-97.44,10.64C1383.07,745.36,1426.07,685.24,1426.07,685.24Z"/></g><g class="cls-4"><path class="cls-3" d="M1305.82,735c-3.78-34.84-20.91-78.51-20.91-78.51S1271.34,706.84,1305.82,735Z"/></g><g class="cls-4"><path class="cls-3" d="M1397.9,751s-48.85-12.81-95.84,11.88C1302.06,762.86,1354.69,777.6,1397.9,751Z"/></g><g class="cls-4"><path class="cls-3" d="M1378.79,788.67s-64.63-6.58-103.72,32.69C1275.07,821.36,1342,846.57,1378.79,788.67Z"/></g><g class="cls-4"><path class="cls-3" d="M1351.65,860.53s-51.93-15.1-99.88,11.3C1319.7,908.11,1351.65,860.53,1351.65,860.53Z"/></g><g class="cls-4"><path class="cls-3" d="M1254.5,838.69c-4-37.46-31.74-67.07-31.74-67.07S1207.44,816.77,1254.5,838.69Z"/></g><g class="cls-4"><path class="cls-3" d="M1230.56,869.42c-12.45-56.94-64.42-95.1-64.42-95.1S1148.56,821.54,1230.56,869.42Z"/></g><g class="cls-4"><path class="cls-3" d="M1267,770.82c-32.87-37.52-77.29-39.08-77.29-39.08C1219.61,772.37,1267,770.82,1267,770.82Z"/></g><g class="cls-4"><path class="cls-3" d="M1284.27,729.74s-2.37,20.4-17.28,41.08C1267,770.82,1293.51,760.67,1284.27,729.74Z"/></g><g class="cls-4"><path class="cls-3" d="M1260.5,701s-39.52-45.79-80.93-45.11C1179.57,655.87,1203.48,709.13,1260.5,701Z"/></g><g class="cls-4"><path class="cls-3" d="M1274.26,614.21s-7.51,44-19,68.86C1255.23,683.07,1285.48,658.23,1274.26,614.21Z"/></g><g class="cls-4"><path class="cls-3" d="M1243.12,645.1c-20.32-34.57-45.76-69.65-45.76-69.65S1179.66,618.73,1243.12,645.1Z"/></g><g class="cls-4"><path class="cls-3" d="M1237,569.8a406.12,406.12,0,0,1,6.08,75.3S1269.66,600.37,1237,569.8Z"/></g></g></g></g></svg>