<?xml version="1.0" encoding="UTF-8"?>
<svg version="1.1" xmlns="http://www.w3.org/2000/svg" width="512" height="512">
<path d="M0 0 C2.359375 2.14453125 2.359375 2.14453125 5 5 C6.0048349 6.05504329 7.01006103 7.10971406 8.015625 8.1640625 C13.81341871 14.34689032 19.39259218 20.60156931 24.69140625 27.22265625 C27.35279458 30.42442799 30.15462246 33.46234918 33 36.5 C37.43834906 41.23864143 41.59142453 46.12119579 45.65625 51.1875 C48.33208278 54.39849934 51.14359707 57.45027636 54 60.5 C58.45874444 65.26088994 62.6379783 70.1646782 66.72265625 75.25390625 C69.2182639 78.26318958 71.83763481 81.13940286 74.5 84 C77.95161936 87.70861688 81.26522148 91.48505895 84.4375 95.4375 C87.80346265 99.62237307 91.33176017 103.58314398 95 107.5 C99.45872195 112.26091334 103.63797624 117.16467563 107.72265625 122.25390625 C110.2182639 125.26318958 112.83763481 128.13940286 115.5 131 C118.95161936 134.70861688 122.26522148 138.48505895 125.4375 142.4375 C128.8034686 146.62238046 132.33181453 150.58308496 136 154.5 C140.50934492 159.3162674 144.7595719 164.26922921 148.890625 169.41796875 C151.64228288 172.78620182 154.53955695 176.00868054 157.46875 179.22265625 C160.46171056 182.69662833 160.52489625 185.82474168 160.4609375 190.2890625 C159.60725834 195.30985349 156.38808793 198.37595595 153 202 C152.21625 202.86496094 151.4325 203.72992188 150.625 204.62109375 C148.93448153 206.4833055 147.23633311 208.3386147 145.53125 210.1875 C143.13313395 212.85207338 140.86796826 215.57941637 138.625 218.375 C134.75845816 223.1706049 130.65148017 227.66878667 126.4440918 232.16137695 C122.52107276 236.37411123 118.88096281 240.76404453 115.27734375 245.25390625 C112.33922549 248.79678299 109.21768822 252.15441772 106.08349609 255.52197266 C103.11269934 258.73316873 100.30031679 262.02636841 97.5625 265.4375 C93.71889943 270.21621628 89.63039836 274.69157687 85.44165039 279.16381836 C82.32446055 282.51099327 79.36426202 285.93005023 76.5 289.5 C73.15698041 293.6666621 69.64884863 297.60419812 66 301.5 C61.54125556 306.26088994 57.3620217 311.1646782 53.27734375 316.25390625 C50.33922549 319.79678299 47.21768822 323.15441772 44.08349609 326.52197266 C41.11269934 329.73316873 38.30031679 333.02636841 35.5625 336.4375 C32.19652744 340.62238539 28.6681492 344.58304558 25 348.5 C19.73132601 354.12829908 14.82962017 359.98937927 10 366 C2.22439661 375.49771689 2.22439661 375.49771689 -3.875 376.875 C-8.01917174 377.24474023 -10.51618847 376.37532604 -14 374 C-17.34407106 371.09593829 -18.35803562 368.62410823 -18.75 364.3125 C-18.44952816 357.54186794 -14.45988429 353.74178946 -10 349 C-8.35378506 347.18784659 -6.70796019 345.37533877 -5.0625 343.5625 C-4.216875 342.6446875 -3.37125 341.726875 -2.5 340.78125 C-0.09469185 338.10534468 2.18229249 335.36540076 4.4375 332.5625 C8.09635769 328.0260327 11.94868963 323.741339 15.91601562 319.47851562 C18.8870119 316.26718772 21.69953832 312.97381211 24.4375 309.5625 C28.28110057 304.78378372 32.36960164 300.30842313 36.55834961 295.83618164 C39.67553945 292.48900673 42.63573798 289.06994977 45.5 285.5 C48.84301959 281.3333379 52.35115137 277.39580188 56 273.5 C60.45874444 268.73911006 64.6379783 263.8353218 68.72265625 258.74609375 C71.66077451 255.20321701 74.78231178 251.84558228 77.91650391 248.47802734 C80.88730066 245.26683127 83.69968321 241.97363159 86.4375 238.5625 C89.80347256 234.37761461 93.3318508 230.41695442 97 226.5 C101.49509165 221.69808585 105.75771728 216.77367917 109.8671875 211.6328125 C111.59262396 209.50287811 113.34700351 207.41383394 115.13330078 205.33544922 C115.67093048 204.70951874 116.20856018 204.08358826 116.76248169 203.43869019 C117.17086273 202.96392242 117.57924377 202.48915466 118 202 C116.54714195 201.99853479 116.54714195 201.99853479 115.06493324 201.99703997 C57.68852604 201.93891182 0.31215516 201.86502787 -57.06420476 201.77101372 C-63.94994815 201.75973511 -70.83569179 201.74860338 -77.72143555 201.73754883 C-78.40665303 201.73644626 -79.09187051 201.7353437 -79.79785216 201.73420772 C-102.01124862 201.69853357 -124.22464356 201.67255925 -146.43805837 201.65161031 C-169.91048185 201.62942139 -193.38286109 201.59618996 -216.85525411 201.55129844 C-230.91864074 201.52475932 -244.98198165 201.50708059 -259.04539209 201.50065396 C-268.6827657 201.49540701 -278.32008174 201.47921333 -287.95742453 201.45433434 C-293.52172698 201.44029566 -299.0859263 201.43115738 -304.65024757 201.43499184 C-309.74244945 201.43839462 -314.83443082 201.42808013 -319.92658751 201.40676448 C-321.77056848 201.40148328 -323.61457226 201.40127558 -325.45855308 201.40660437 C-327.96272989 201.41310491 -330.46617616 201.40122995 -332.97029209 201.38476086 C-334.04730028 201.3941759 -334.04730028 201.3941759 -335.14606622 201.40378115 C-341.20814932 201.33021491 -345.77381769 199.88369272 -350.4375 195.9375 C-352.73603064 191.61626239 -352.8810266 187.78818802 -352 183 C-350.28553529 179.43245428 -347.98906609 177.41981774 -344.31447875 175.86010706 C-340.52195995 174.87594863 -336.9805704 174.71859988 -333.09333992 174.73828697 C-332.31145333 174.73429091 -331.52956675 174.73029485 -330.72398663 174.72617769 C-328.1002796 174.71519645 -325.47678323 174.71840569 -322.85305786 174.7215271 C-320.95459374 174.71652464 -319.05613175 174.71064899 -317.15767276 174.70397437 C-311.9378956 174.68815436 -306.71817223 174.68474258 -301.49837399 174.68332577 C-295.87059937 174.67963522 -290.24285439 174.66448147 -284.61509705 174.65071106 C-274.86363154 174.62842356 -265.11217655 174.61341923 -255.36069107 174.60334396 C-241.26163543 174.58876628 -227.16261644 174.563232 -213.06358229 174.53501268 C-190.18953206 174.48952814 -167.31547973 174.45290314 -144.44140625 174.421875 C-122.21971714 174.39171071 -99.99804089 174.35737202 -77.77636719 174.31738281 C-76.74889343 174.31553631 -76.74889343 174.31553631 -75.70066262 174.3136525 C-68.82177964 174.30128563 -61.9428968 174.28883391 -55.06401408 174.27632002 C2.6239723 174.17138342 60.31197495 174.08076303 118 174 C116.56422719 172.23713004 115.12732279 170.47518167 113.68994141 168.71362305 C112.88988678 167.73233932 112.08983215 166.7510556 111.26553345 165.74003601 C108.72285059 162.66480329 106.0978527 159.72866702 103.375 156.8125 C98.20946595 151.23946568 93.18737684 145.56746514 88.2578125 139.78515625 C87.23455265 138.58578591 86.21110963 137.38657183 85.1875 136.1875 C84.67026367 135.58139893 84.15302734 134.97529785 83.62011719 134.35083008 C80.4151062 130.60948459 77.14798497 126.9389307 73.8125 123.3125 C70.60354956 119.81740111 67.53934163 116.2571616 64.5625 112.5625 C60.90364231 108.0260327 57.05131037 103.741339 53.08398438 99.47851562 C50.1129881 96.26718772 47.30046168 92.97381211 44.5625 89.5625 C41.19653735 85.37762693 37.66823983 81.41685602 34 77.5 C29.54127805 72.73908666 25.36202376 67.83532437 21.27734375 62.74609375 C18.7817361 59.73681042 16.16236519 56.86059714 13.5 54 C10.04838064 50.29138312 6.73477852 46.51494105 3.5625 42.5625 C-0.32798283 37.71867362 -4.46270662 33.16779907 -8.75170898 28.67797852 C-18.72542639 18.11372309 -18.72542639 18.11372309 -18.625 11.9375 C-18.44092735 8.48219346 -17.93309001 6.253401 -15.8125 3.5 C-11.01304959 -0.76617814 -6.18674629 -2.33174718 0 0 Z " fill="#000000" transform="translate(352,68)"/>
</svg>
